<svg xmlns="http://www.w3.org/2000/svg" width="182.8" height="21.6" viewBox="0 0 182.8 21.6">
	<g fill="#5a9cd7">
		<path d="M105.2,7.9h4.9V10h0.1c0.8-1.6,1.9-2.5,3.8-2.5c0.5,0,1,0.1,1.5,0.2v4.5c-0.5-0.2-1-0.3-2-0.3c-2,0-3.1,1.2-3.1,4.1v5.3h-5.1L105.2,7.9L105.2,7.9z" />
		<path d="M130.4,18.3c0,1,0.1,2.1,0.6,3h-5.2c-0.1-0.4-0.2-0.9-0.2-1.3h-0.1c-1.1,1.2-2.7,1.6-4.3,1.6c-2.6,0-4.7-1.2-4.7-4.1c0-4.2,5-4.1,7.6-4.6c0.7-0.1,1.4-0.3,1.4-1.2c0-0.9-0.9-1.2-1.7-1.2c-1.6,0-1.9,0.8-1.9,1.4h-4.8c0.1-1.9,1-3,2.3-3.6c1.3-0.6,3-0.8,4.6-0.8c6.4,0,6.4,2.7,6.4,5.2L130.4,18.3L130.4,18.3z M125.5,15.3c-0.6,0.3-1.3,0.5-2,0.6c-1.1,0.3-1.7,0.5-1.7,1.4c0,0.6,0.7,1.2,1.6,1.2c1.2,0,2.1-0.7,2.1-2.1V15.3z" />
		<path d="M147.2,21.3h-4.9v-1.5h-0.1c-0.6,0.9-1.4,1.8-3.9,1.8c-3.8,0-5.6-3.7-5.6-7.1c0-3.2,1.2-7,5.7-7c1.5,0,2.9,0.7,3.7,1.8h0.1V2.8h5.1L147.2,21.3L147.2,21.3z M140,11.3c-1.8,0-2.2,1.7-2.2,3.3c0,1.6,0.4,3.3,2.2,3.3c1.8,0,2.2-1.7,2.2-3.3C142.3,13,141.9,11.3,140,11.3z" />
		<path d="M163.2,18.3c0,1,0.1,2.1,0.6,3h-5.2c-0.1-0.4-0.2-0.9-0.2-1.3h-0.1c-1.1,1.2-2.7,1.6-4.3,1.6c-2.6,0-4.7-1.2-4.7-4.1c0-4.2,5-4.1,7.6-4.6c0.7-0.1,1.4-0.3,1.4-1.2c0-0.9-0.9-1.2-1.7-1.2c-1.6,0-1.9,0.8-1.9,1.4H150c0.1-1.9,1-3,2.3-3.6c1.3-0.6,3-0.8,4.6-0.8c6.4,0,6.4,2.7,6.4,5.2L163.2,18.3L163.2,18.3z M158.3,15.3c-0.6,0.3-1.3,0.5-2,0.6c-1.1,0.3-1.7,0.5-1.7,1.4c0,0.6,0.7,1.2,1.6,1.2c1.2,0,2.1-0.7,2.1-2.1V15.3z" />
		<path d="M166.4,7.9h4.9V10h0.1c0.8-1.6,1.9-2.5,3.8-2.5c0.5,0,1,0.1,1.5,0.2v4.5c-0.5-0.2-1-0.3-2-0.3c-2,0-3.1,1.2-3.1,4.1v5.3h-5.1L166.4,7.9L166.4,7.9z" />
		<path d="M182.1,7.1c-0.5,0.5-1.1,0.7-1.7,0.7c-0.7,0-1.3-0.2-1.8-0.7c-0.5-0.5-0.7-1.1-0.7-1.8c0-0.7,0.3-1.3,0.8-1.8c0.5-0.5,1.1-0.7,1.7-0.7c0.7,0,1.3,0.2,1.8,0.7c0.5,0.5,0.7,1.1,0.7,1.8C182.8,6.1,182.6,6.7,182.1,7.1z M178.9,3.9c-0.4,0.4-0.6,0.9-0.6,1.4c0,0.6,0.2,1.1,0.6,1.5c0.4,0.4,0.9,0.6,1.5,0.6c0.6,0,1.1-0.2,1.5-0.6c0.4-0.4,0.6-0.9,0.6-1.5c0-0.6-0.2-1-0.6-1.4c-0.4-0.4-0.9-0.6-1.5-0.6C179.8,3.3,179.3,3.5,178.9,3.9z M179.2,6.7V4c0.2,0,0.4,0,0.8,0s0.5,0,0.6,0c0.2,0,0.4,0.1,0.5,0.1c0.2,0.1,0.4,0.4,0.4,0.7c0,0.2-0.1,0.4-0.2,0.5c-0.1,0.1-0.3,0.2-0.5,0.2c0.2,0,0.3,0.1,0.4,0.2c0.2,0.1,0.2,0.3,0.2,0.6v0.2c0,0,0,0.1,0,0.1c0,0,0,0.1,0,0.1l0,0.1h-0.7c0-0.1,0-0.2,0-0.4s0-0.3,0-0.3c0-0.1-0.1-0.2-0.2-0.2c-0.1,0-0.1,0-0.2,0l-0.2,0H180v1H179.2z M180.6,4.5c-0.1,0-0.2-0.1-0.4-0.1H180v0.8h0.3c0.2,0,0.3,0,0.4-0.1c0.1-0.1,0.1-0.2,0.1-0.3S180.7,4.6,180.6,4.5z" />
	</g>
	<g fill="#152b81">
		<path d="M27.9,2.8H38c4.9,0,5.9,2.7,5.9,4.6c0,1.9-0.9,2.9-2.3,3.6c1.7,0.6,3.2,1.9,3.2,4.6c0,3.7-3.2,5.6-6.5,5.6H27.9V2.8z M33.5,10h3c1.2,0,1.9-0.3,1.9-1.5c0-0.9-0.8-1.3-1.9-1.3h-3V10z M33.5,16.9h3.3c1.2,0,2.2-0.3,2.2-1.8c0-1.1-0.6-1.7-2-1.7h-3.6V16.9z" />
		<path d="M61,21.3H56v-1.7H56c-1,1.3-2.3,2-4.4,2c-2.4,0-4.6-1.5-4.6-4.5V7.9h5.1v7c0,1.6,0.2,2.6,1.7,2.6c0.9,0,2-0.4,2-2.6V7.9H61L61,21.3L61,21.3z" />
		<path d="M69.1,6.4H64V2.8h5.1V6.4z M64,7.9h5.1v13.4H64V7.9z" />
		<path d="M76.2,15.7c0.1,1.5,1,2.6,2.6,2.6c0.8,0,1.7-0.3,2.1-1h4.8c-1,2.9-3.9,4.2-6.9,4.2c-4.3,0-7.5-2.5-7.5-7c0-3.9,2.8-7.1,7.1-7.1c5.3,0,7.6,3,7.6,8.2L76.2,15.7L76.2,15.7z M81.1,13.1c0-1.2-0.9-2.2-2.2-2.2c-1.5,0-2.4,0.8-2.6,2.2H81.1z" />
		<path d="M88.3,7.9h4.9v1.7h0.1c1-1.3,2.3-2,4.4-2c2.4,0,4.6,1.5,4.6,4.5v9.2h-5.1v-7c0-1.6-0.2-2.6-1.7-2.6c-0.9,0-2,0.4-2,2.6v7.1h-5.1V7.9z" />
	</g>
	<g>
		<g fill="#152b81">
			<path d="M6,20.7c1.3,0.6,2.7,0.9,4.1,0.9c5.6,0,10.1-4.5,10.1-10.1c0-1.8-0.5-3.5-1.3-5L6,20.7z" />
			<path d="M15.2,2.7c-1.5-0.9-3.3-1.4-5.1-1.4C4.5,1.3,0,5.8,0,11.4c0,1.3,0.2,2.5,0.7,3.6L15.2,2.7z" />
		</g>
		<path fill="#5a9cd7" d="M4.2,19.8L21.3,0L1.2,16.8l0,0c-0.6,0.4-1,1.1-1,1.8c0,1.2,1,2.2,2.2,2.2c0.5,0,1-0.2,1.4-0.5l0,0h0C4,20.1,4.1,20,4.2,19.8z" />
	</g>
</svg>